<svg version="1" xmlns="http://www.w3.org/2000/svg" width="970.667" height="970.667" viewBox="0 0 728.000000 728.000000"><path d="M0 364v364h728V0H0v364zm471.2 22.1l.3 94.2 40.5-47.6 40.5-47.6 49.9-.1h49.8l-6 6.7c-3.2 3.8-26.7 30.6-52 59.6l-46.1 52.9 11.6 15.6c6.4 8.6 16.9 22.7 23.3 31.2 6.4 8.5 25 33.4 41.3 55.3L654 646l-50.3-.2-50.2-.3-30.1-43.8c-16.6-24.1-30.5-44.2-31.1-44.8-.6-.6-4.5 2.8-11.1 10L471 577.8V646h-80V292h80l.2 94.1zm-253.5-6c20.2 2.2 43.9 10.4 57.5 19.7 21.3 14.6 32.7 35.7 35.7 66.1.7 6.3 1.1 43.1 1.1 95.2V646h-80v-15l-5.6 3.6c-23.4 15-57.2 20.8-85.5 14.9-19.8-4.2-40.4-16.3-53.4-31.6-14.9-17.5-21.5-45.9-16.9-73 3.8-22.5 14.5-39.3 32.7-51.5 16.4-11 33.4-16.3 55.2-17.1 26.7-1 50.5 4.6 67.9 15.9l5.8 3.8-.4-12.2c-.3-10.3-.7-13-2.6-16.6-7.3-13.9-24.9-21.1-48.2-19.9-21.8 1.2-41.2 9.1-58.2 23.8-5.9 5.1-9.8 6.2-13 3.6-1.4-1-28.3-47.9-29-50.5-.4-1.2 12.4-11.9 21.5-18.1 31.1-20.9 74.1-30.6 115.4-26z"/><path d="M174.7 536.5c-16.5 4.2-25.2 13.9-25.1 28 .1 15.3 10.9 25 30.8 27.5 18.7 2.3 36.9-2.3 48.3-12.3l3.3-2.9v-25.5l-4.4-4.1c-5.3-4.9-8-6.3-17.1-9.1-9.2-2.9-27.5-3.7-35.8-1.6z"/></svg>